<svg xmlns="http://www.w3.org/2000/svg" viewBox="0 0 841.89 595.28"><defs><style>.cls-1{isolation:isolate;}.cls-2{font-size:91.77px;font-family:WorkSans-Bold, Work Sans;font-weight:700;letter-spacing:0.1em;}.cls-2,.cls-6,.cls-7{fill:#fff;}.cls-3{letter-spacing:0.1em;}.cls-4{letter-spacing:0.1em;}.cls-5{letter-spacing:0.09em;}.cls-7{mix-blend-mode:multiply;}</style></defs><g class="cls-1"><g id="Layer_1" data-name="Layer 1"><text class="cls-2" transform="translate(465.77 407.21)">Glo<tspan class="cls-3" x="178.87" y="0">b</tspan><tspan class="cls-4" x="245.13" y="0">a</tspan><tspan class="cls-5" x="307.44" y="0">l</tspan></text><rect class="cls-6" x="270.21" y="333.03" width="70.95" height="31.22"/><path class="cls-7" d="M204.47,157.71v74.8h-.25v.91a86.84,86.84,0,0,1-72.49,85.08,85.78,85.78,0,0,1-14.24,1.18,86.81,86.81,0,0,1-86.71-86.26h72.76a14,14,0,0,0,27.92,0h.27V157.71Z"/><rect class="cls-7" x="731.66" y="157.51" width="72.74" height="162.37" rx="36.37"/><path class="cls-7" d="M707.05,241.13v79.06H634.36V234.88a18.7,18.7,0,1,0-37.39,0v85.31H524.31V234.88a18.71,18.71,0,0,0-37.41,0v85.31H414.32V241c0-40.74,29.21-76.25,69.46-82.55,1.09-.16,2.18-.32,3.29-.45A98.67,98.67,0,0,1,560,178.12a99,99,0,0,1,60.81-20.92,97.22,97.22,0,0,1,13.51.93A100.76,100.76,0,0,1,644.38,160C681.42,169.12,707.05,203,707.05,241.13Z"/><path class="cls-7" d="M371.4,188.69a79.42,79.42,0,0,0-8.36-9.22L361.46,178c-.46-.4-.93-.82-1.41-1.22l-.6-.52c-1.09-.91-2.2-1.8-3.32-2.64a81.44,81.44,0,0,0-91.57-4.56c-1.31.8-2.6,1.63-3.86,2.52-.69.48-1.36.95-2,1.48-.46.31-.89.65-1.35,1a1.27,1.27,0,0,0-.34.27c-.9.69-1.79,1.42-2.64,2.15a81.55,81.55,0,1,0,117.06,12.2Zm-46.35,56.54a19.19,19.19,0,1,1-11.5-24.59A19.18,19.18,0,0,1,325.05,245.23Z"/></g></g></svg>