<svg xmlns="http://www.w3.org/2000/svg" viewBox="0 0 841.89 595.28"><defs><style>.cls-1{isolation:isolate;}.cls-2{fill:#ffd05c;}.cls-3{fill:#3a3a3c;mix-blend-mode:multiply;}</style></defs><g class="cls-1"><g id="Layer_1" data-name="Layer 1"><rect class="cls-2" x="269.74" y="371.81" width="72.79" height="32.03"/><path class="cls-3" d="M202.29,191.94v76.75H202v.93a89.08,89.08,0,0,1-74.37,87.28,86.94,86.94,0,0,1-14.61,1.22,89.06,89.06,0,0,1-89-88.5H98.74a14.33,14.33,0,0,0,28.64,0h.28V191.94Z"/><rect class="cls-3" x="743.17" y="191.74" width="74.63" height="166.59" rx="37.32"/><path class="cls-3" d="M717.92,277.53v81.11H643.34V271.11a19.18,19.18,0,0,0-38.36,0v87.53H530.44V271.11a19.19,19.19,0,0,0-38.38,0v87.53H417.59v-81.3c0-41.79,30-78.23,71.26-84.69,1.12-.16,2.24-.33,3.38-.46a100.08,100.08,0,0,1,12.43-.77A101.13,101.13,0,0,1,567,212.88a101.47,101.47,0,0,1,76.26-20.51q5.26.74,10.33,2C691.63,203.64,717.92,238.39,717.92,277.53Z"/><path class="cls-3" d="M373.56,223.72a83.62,83.62,0,0,0-8.58-9.46l-1.63-1.49-1.43-1.25-.62-.54c-1.12-.93-2.26-1.85-3.41-2.71a83.56,83.56,0,0,0-93.95-4.68c-1.34.82-2.67,1.68-4,2.59-.7.49-1.39,1-2.08,1.52-.47.31-.92.67-1.39,1a1.87,1.87,0,0,0-.35.28c-.91.71-1.83,1.46-2.71,2.2a83.67,83.67,0,1,0,120.11,12.52Zm-47.56,58a19.69,19.69,0,1,1-11.79-25.22A19.69,19.69,0,0,1,326,281.73Z"/></g></g></svg>